<?xml version="1.0" encoding="utf-8"?>
<!-- Generator: Adobe Illustrator 27.3.1, SVG Export Plug-In . SVG Version: 6.00 Build 0)  -->
<svg version="1.1" id="empty-notes" xmlns="http://www.w3.org/2000/svg" xmlns:xlink="http://www.w3.org/1999/xlink" x="0px"
	 y="0px" viewBox="0 0 24 24" style="enable-background:new 0 0 24 24;" xml:space="preserve">
<g>
	<path d="M20.6,19.6c0.3,0,0.5,0,0.7,0.1c0.1,0,0.3,0,0.4,0.1c0.3,0.1,0.3,0.4,0.2,0.7c-0.2,0.3-0.4,0.3-0.7,0.3c-0.5,0-1,0-1.4,0
		c-2.8,0-5.6,0.1-8.4,0c-1.6,0-3.1,0-4.7-0.1c-1.2,0-2.4-0.1-3.6-0.2c-0.1,0-0.3,0-0.4-0.1c-1-0.2-1.5-0.7-1.6-1.8
		c-0.1-1.6-0.3-3.2-0.4-4.8c-0.2-1.7-0.3-3.4-0.5-5.2C0,8.2-0.1,7.5,0.1,6.9s0.5-1.2,1-1.6C1.4,5,1.5,4.8,1.5,4.4
		c0.1-1.1,0.9-1.8,2-1.7c0.1,0,0.2,0,0.2,0c2.1,0,4.2,0,6.2,0.1c2.4,0,4.7,0.1,7,0.1c0.6,0,1.1,0,1.7,0c1.1,0,1.9,0.8,1.9,1.9
		c0,0.7,0,1.5,0,2.2c0,0.2,0,0.3,0.2,0.3c0.9,0.2,1.3,0.9,1.2,1.8c-0.1,1.3-0.3,2.6-0.4,3.9c-0.2,1.6-0.3,3.2-0.5,4.8
		c0,0.2,0,0.5-0.1,0.7C21.1,18.8,21,19.3,20.6,19.6L20.6,19.6z M11.3,19.3c2.7,0,5.5,0,8.2,0c0.6,0,1-0.3,1-1c0-0.4,0.1-0.8,0.1-1.2
		c0.1-1.1,0.2-2.2,0.3-3.3c0.1-0.9,0.2-1.9,0.3-2.8c0.1-0.8,0.2-1.6,0.2-2.4c0-0.4-0.2-0.6-0.5-0.8c-0.2-0.1-0.3-0.1-0.5-0.1
		c-1.9,0-3.8,0-5.7,0c-0.7,0-1.3-0.2-1.7-0.8c-0.2-0.3-0.5-0.5-0.7-0.8c-0.4-0.4-0.9-0.7-1.5-0.7c-3,0-5.9,0-8.9,0
		c-0.6,0-1,0.4-0.9,1c0,0.7,0.1,1.4,0.2,2.1c0.1,1,0.2,2,0.3,3.1c0.1,1,0.2,2,0.3,3c0.1,1.2,0.2,2.5,0.3,3.7c0.1,0.7,0.4,1,1,1
		C5.9,19.3,8.6,19.3,11.3,19.3L11.3,19.3z M17.2,7.2c0.9,0,1.7,0,2.6,0C20,7.2,20,7.1,20,6.9c0-0.8,0-1.6,0-2.4
		C20,4,19.6,3.5,19,3.5c-0.4,0-0.8,0-1.3,0c-2.3,0-4.6-0.1-6.9-0.1c-2,0-3.9,0-5.9-0.1c-0.5,0-1,0-1.5,0c-0.6,0-1,0.4-1.1,0.9
		c0,0.2,0,0.3,0,0.5C2.1,4.9,2.3,5,2.5,5c2.8,0,5.6,0,8.4,0c0.8,0,1.4,0.3,1.9,0.9c0.2,0.3,0.5,0.5,0.7,0.8c0.3,0.4,0.8,0.6,1.3,0.6
		C15.6,7.2,16.4,7.2,17.2,7.2L17.2,7.2z"/>
	<path d="M23.4,4.3c0.1,0,0.2,0,0.3,0c0.2,0,0.3,0.1,0.3,0.3c0,0.2-0.1,0.3-0.3,0.3c-0.6,0-1.3,0.1-1.9,0.1c-0.2,0-0.4,0-0.4-0.3
		c0-0.2,0.1-0.3,0.3-0.3C22.3,4.4,22.9,4.3,23.4,4.3L23.4,4.3L23.4,4.3z"/>
	<path d="M21.2,3.9c-0.3,0-0.4-0.3-0.3-0.4c0-0.1,0.1-0.1,0.2-0.1c0.5-0.3,1.1-0.7,1.6-1c0.2-0.1,0.3-0.1,0.4,0
		c0.1,0.1,0.1,0.3-0.1,0.4c-0.6,0.4-1.1,0.7-1.7,1.1C21.3,3.9,21.3,3.9,21.2,3.9L21.2,3.9z"/>
	<path d="M20.3,3C20.1,3,20,2.8,20,2.6c0.2-0.5,0.4-1,0.8-1.4c0.1-0.1,0.3-0.2,0.4-0.1s0.1,0.3,0,0.4c-0.3,0.4-0.5,0.7-0.6,1.2
		C20.5,2.9,20.5,3,20.3,3L20.3,3z"/>
	<path d="M11.1,14.6c1.3,0,2.5,0.5,3.6,1.4c0.1,0.1,0.1,0.1,0.2,0.2c0.1,0.1,0.1,0.3,0,0.4c-0.1,0.1-0.2,0.1-0.4,0.1
		c-0.1,0-0.1-0.1-0.2-0.2c-1.8-1.7-4.6-1.7-6.4,0.1c0,0-0.1,0.1-0.1,0.1c-0.2,0.2-0.3,0.2-0.5,0.1c-0.1-0.1-0.1-0.3,0-0.5
		c0.4-0.4,0.8-0.7,1.2-1C9.3,14.9,10.2,14.7,11.1,14.6L11.1,14.6z"/>
	<path d="M4.8,13c-0.1,0-0.2-0.1-0.3-0.2c-0.1-0.1,0-0.2,0.1-0.3c0.3-0.3,0.5-0.6,0.8-0.8c0.1-0.1,0.1-0.2,0-0.3
		c-0.3-0.2-0.5-0.5-0.8-0.8c-0.2-0.2-0.2-0.4-0.1-0.5c0.1-0.2,0.3-0.1,0.5,0c0.3,0.3,0.6,0.5,0.8,0.8c0.1,0.1,0.2,0.1,0.3,0
		c0.3-0.3,0.6-0.6,1-1c0.1-0.1,0.2-0.1,0.4-0.1c0.1,0,0.2,0.1,0.2,0.2c0,0.1,0,0.2-0.1,0.3c-0.3,0.3-0.6,0.6-0.8,0.8
		c-0.2,0.2-0.2,0.3,0,0.5c0.2,0.2,0.4,0.4,0.6,0.6c0.2,0.2,0.2,0.4,0,0.5c-0.1,0.1-0.3,0.1-0.5-0.1c-0.2-0.2-0.4-0.4-0.7-0.7
		c-0.1-0.1-0.2-0.1-0.3,0c-0.3,0.3-0.5,0.5-0.8,0.8C5,12.9,5,13,4.8,13L4.8,13z"/>
	<path d="M16.7,9.9c0,0.1-0.1,0.2-0.1,0.3c-0.2,0.2-0.4,0.4-0.6,0.6c-0.1,0.1-0.1,0.2,0,0.3c0.3,0.3,0.6,0.5,0.8,0.8
		c0.2,0.2,0.2,0.4,0,0.5c-0.2,0.2-0.3,0.1-0.5,0c-0.3-0.3-0.5-0.5-0.8-0.8c-0.1-0.1-0.2-0.2-0.3,0c-0.2,0.2-0.5,0.5-0.7,0.7
		c-0.2,0.2-0.4,0.2-0.5,0.1c-0.1-0.1-0.1-0.3,0.1-0.5c0.2-0.2,0.5-0.5,0.7-0.7c0.1-0.1,0.2-0.2,0-0.3c-0.3-0.2-0.5-0.5-0.8-0.7
		c-0.2-0.2-0.3-0.4-0.1-0.5c0.2-0.1,0.3-0.1,0.5,0.1c0.2,0.2,0.5,0.5,0.7,0.8c0.1,0.2,0.2,0.1,0.4,0c0.2-0.2,0.4-0.4,0.6-0.6
		c0.1-0.1,0.2-0.1,0.3-0.1C16.6,9.7,16.7,9.8,16.7,9.9L16.7,9.9z"/>
</g>
</svg>
